
<svg version="1.0" xmlns="http://www.w3.org/2000/svg"
 width="420px" height="420px" viewBox="0 0 1273.000000 1280.000000"
 preserveAspectRatio="xMidYMid meet">
<g transform="translate(0.000000,1280.000000) scale(0.100000,-0.100000)"
fill="#000000" stroke="none">
<path d="M4250 12798 c0 -2 -42 -160 -94 -353 l-93 -350 -94 -22 c-158 -38
-329 -84 -423 -116 l-89 -29 -261 261 -261 261 -507 -293 c-279 -161 -509
-295 -513 -298 -5 -5 30 -141 159 -618 l25 -94 -87 -81 c-109 -101 -176 -168
-277 -277 l-80 -86 -354 94 c-194 52 -355 93 -356 91 -9 -8 -585 -1009 -585
-1016 0 -4 115 -122 257 -264 l256 -256 -31 -99 c-45 -142 -78 -262 -108 -398
-15 -66 -27 -121 -28 -122 -1 0 -152 -40 -336 -88 -184 -47 -343 -88 -352 -91
-17 -5 -18 -42 -18 -598 l0 -592 268 -68 c147 -38 305 -78 352 -90 l85 -23 14
-59 c46 -200 76 -314 113 -432 l42 -134 -261 -254 -261 -254 294 -507 c161
-279 298 -509 304 -511 5 -2 163 39 349 92 l340 96 232 -232 231 -232 -96
-345 c-76 -273 -93 -348 -83 -357 6 -6 237 -141 512 -299 l500 -288 255 261
256 261 109 -35 c128 -42 448 -124 482 -124 30 0 33 -6 88 -225 25 -99 64
-251 87 -337 l41 -158 589 0 588 0 9 23 c5 12 45 168 91 347 45 179 87 331 92
338 6 6 19 12 29 12 33 0 343 79 470 120 71 22 126 35 129 30 20 -32 505 -510
514 -506 6 2 236 135 511 294 416 240 500 292 497 309 -1 11 -45 170 -96 354
l-94 334 56 49 c74 65 285 275 349 349 l50 58 129 -36 c333 -94 556 -155 567
-155 11 0 588 983 595 1013 1 7 -114 126 -257 264 l-259 253 39 119 c42 129
79 271 108 408 l18 87 309 83 c170 46 330 88 357 95 l47 11 0 593 0 593 -32 9
c-18 5 -175 46 -348 92 -173 46 -320 87 -326 92 -6 5 -15 27 -18 51 -11 70
-61 265 -107 416 l-42 143 258 258 c247 247 257 258 245 281 -14 27 -571 992
-576 997 -1 2 -160 -39 -354 -91 l-351 -95 -224 225 -223 224 93 352 c52 193
92 353 90 355 -1 2 -232 135 -511 297 l-509 294 -261 -261 -262 -260 -93 30
c-143 47 -222 68 -368 101 -74 17 -137 34 -141 38 -4 4 -49 164 -100 356 l-93
347 -594 0 c-326 0 -593 -1 -593 -2z"/>
</g>
</svg>
