

<svg version="1.0" xmlns="http://www.w3.org/2000/svg" width="1280.000000pt" height="704.000000pt" viewBox="0 0 1280.000000 704.000000"
 preserveAspectRatio="xMidYMid meet">
    <g transform="translate(0.000000,704.000000) scale(0.100000,-0.100000)"
    fill="#000000" stroke="none">
    <path d="M4051 7025 c-92 -17 -166 -43 -296 -105 -229 -110 -469 -285 -970
    -705 -440 -368 -646 -531 -925 -732 -637 -457 -1267 -863 -1742 -1124 -69 -37
    -118 -70 -118 -79 0 -9 24 -24 62 -39 284 -110 991 -530 1374 -817 287 -215
    636 -575 1082 -1119 558 -679 703 -844 949 -1086 239 -234 446 -403 723 -586
    579 -383 1040 -553 1675 -615 176 -17 886 -17 1060 0 643 64 1121 239 1700
    625 264 175 474 347 708 576 246 242 391 407 949 1086 446 544 795 904 1082
    1119 383 287 1090 707 1374 817 38 15 62 30 62 39 0 9 -49 42 -118 79 -475
    261 -1105 667 -1742 1124 -279 201 -486 365 -925 733 -527 441 -770 615 -1019
    727 -242 108 -418 122 -635 51 -42 -14 -231 -101 -421 -194 -190 -93 -397
    -189 -460 -213 -685 -268 -1416 -273 -2108 -16 -75 28 -288 124 -472 214 -184
    89 -371 176 -415 193 -158 60 -285 74 -434 47z m1786 -2733 c238 -78 374 -102
    566 -102 196 1 334 26 582 108 124 41 150 46 225 46 74 -1 98 -6 180 -38 52
    -20 192 -91 312 -157 274 -151 667 -339 846 -403 20 -8 51 -19 67 -26 l30 -11
    -53 -19 c-200 -71 -300 -117 -682 -318 -180 -94 -763 -362 -871 -400 -185 -65
    -374 -92 -646 -92 -266 0 -418 21 -610 85 -115 38 -685 299 -893 407 -382 201
    -482 247 -682 318 l-53 19 30 11 c17 7 47 18 67 26 179 64 572 251 846 403
    212 117 337 174 417 191 75 17 164 3 322 -48z"/>
    </g>
</svg>
